{
  "accessors": [
    {
      "bufferView": 2,
      "componentType": 5126,
      "count": 2423,
      "max": [
        0.32047098875045776,
        0.8294090032577515,
        2.227781057357788
      ],
      "min": [
        -0.32047098875045776,
        -1.499770998954773,
        -0.01233300007879734
      ],
      "type": "VEC3"
    },
    {
      "bufferView": 2,
      "byteOffset": 29076,
      "componentType": 5126,
      "count": 2423,
      "max": [
        0.9994339942932129,
        0.9996657371520996,
        0.9997426271438599
      ],
      "min": [
        -0.9994339942932129,
        -0.9996675252914429,
        -0.9999980926513672
      ],
      "type": "VEC3"
    },
    {
      "bufferView": 3,
      "componentType": 5126,
      "count": 2423,
      "max": [
        0.9999512434005737,
        0.9999806880950928,
        0.9977768659591675,
        1.0
      ],
      "min": [
        -0.9988327026367188,
        -0.9999480247497559,
        -0.9994322061538696,
        1.0
      ],
      "type": "VEC4"
    },
    {
      "bufferView": 1,
      "componentType": 5126,
      "count": 2423,
      "max": [
        0.9999989867210388,
        0.9750159978866577
      ],
      "min": [
        9.999999974752427e-07,
        9.999999974752427e-07
      ],
      "type": "VEC2"
    },
    {
      "bufferView": 0,
      "componentType": 5125,
      "count": 12906,
      "type": "SCALAR"
    },
    {
      "bufferView": 2,
      "byteOffset": 58152,
      "componentType": 5126,
      "count": 151,
      "max": [
        0.17355400323867798,
        -1.9512759447097778,
        2.766369104385376
      ],
      "min": [
        -0.17355400323867798,
        -2.0151970386505127,
        2.7019619941711426
      ],
      "type": "VEC3"
    },
    {
      "bufferView": 2,
      "byteOffset": 59964,
      "componentType": 5126,
      "count": 151,
      "max": [
        0.995905339717865,
        0.9879696369171143,
        1.0
      ],
      "min": [
        -0.9959052205085754,
        -0.9879715442657471,
        -1.0
      ],
      "type": "VEC3"
    },
    {
      "bufferView": 3,
      "byteOffset": 38768,
      "componentType": 5126,
      "count": 151,
      "max": [
        0.9998780488967896,
        0.9941381216049194,
        0.9984415173530579,
        1.0
      ],
      "min": [
        -0.9980118870735168,
        -0.9458834528923035,
        -0.9999975562095642,
        -1.0
      ],
      "type": "VEC4"
    },
    {
      "bufferView": 1,
      "byteOffset": 19384,
      "componentType": 5126,
      "count": 151,
      "max": [
        0.11351300030946732,
        0.19462500512599945
      ],
      "min": [
        0.0019539999775588512,
        9.999999974752427e-07
      ],
      "type": "VEC2"
    },
    {
      "bufferView": 0,
      "byteOffset": 51624,
      "componentType": 5125,
      "count": 672,
      "type": "SCALAR"
    }
  ],
  "asset": {
    "extras": {
      "author": "mebuyukbulut (https://sketchfab.com/mebuyukbulut)",
      "license": "CC-BY-4.0 (http://creativecommons.org/licenses/by/4.0/)",
      "source": "https://sketchfab.com/3d-models/a-brown-horse-with-blaze-2599b1203fe144d7bdfb5becf7acfe7e",
      "title": "A Brown Horse with Blaze"
    },
    "generator": "Sketchfab-16.14.0",
    "version": "2.0"
  },
  "bufferViews": [
    {
      "buffer": 0,
      "byteLength": 54312,
      "name": "floatBufferViews",
      "target": 34963
    },
    {
      "buffer": 0,
      "byteLength": 20592,
      "byteOffset": 54312,
      "byteStride": 8,
      "name": "floatBufferViews",
      "target": 34962
    },
    {
      "buffer": 0,
      "byteLength": 61776,
      "byteOffset": 74904,
      "byteStride": 12,
      "name": "floatBufferViews",
      "target": 34962
    },
    {
      "buffer": 0,
      "byteLength": 41184,
      "byteOffset": 136680,
      "byteStride": 16,
      "name": "floatBufferViews",
      "target": 34962
    }
  ],
  "buffers": [
    {
      "byteLength": 177864,
      "uri": "scene.bin"
    }
  ],
  "images": [
    {
      "uri": "textures/DefaultMaterial_baseColor.jpeg"
    },
    {
      "uri": "textures/DefaultMaterial_metallicRoughness.png"
    },
    {
      "uri": "textures/DefaultMaterial_normal.png"
    }
  ],
  "materials": [
    {
      "doubleSided": true,
      "name": "DefaultMaterial",
      "normalTexture": {
        "index": 2
      },
      "occlusionTexture": {
        "index": 1
      },
      "pbrMetallicRoughness": {
        "baseColorTexture": {
          "index": 0
        },
        "metallicRoughnessTexture": {
          "index": 1
        }
      }
    }
  ],
  "meshes": [
    {
      "name": "defaultMaterial",
      "primitives": [
        {
          "attributes": {
            "NORMAL": 1,
            "POSITION": 0,
            "TANGENT": 2,
            "TEXCOORD_0": 3
          },
          "indices": 4,
          "material": 0,
          "mode": 4
        }
      ]
    },
    {
      "name": "defaultMaterial",
      "primitives": [
        {
          "attributes": {
            "NORMAL": 6,
            "POSITION": 5,
            "TANGENT": 7,
            "TEXCOORD_0": 8
          },
          "indices": 9,
          "material": 0,
          "mode": 4
        }
      ]
    }
  ],
  "nodes": [
    {
      "children": [
        1
      ],
      "matrix": [
        1.0,
        0.0,
        0.0,
        0.0,
        0.0,
        2.220446049250313e-16,
        -1.0,
        0.0,
        0.0,
        1.0,
        2.220446049250313e-16,
        0.0,
        0.0,
        0.0,
        0.0,
        1.0
      ],
      "name": "Sketchfab_model"
    },
    {
      "children": [
        2,
        4
      ],
      "matrix": [
        1.0,
        0.0,
        0.0,
        0.0,
        0.0,
        -4.371139006309477e-08,
        0.999999999999999,
        0.0,
        0.0,
        -0.999999999999999,
        -4.371139006309477e-08,
        0.0,
        0.0,
        0.0,
        0.0,
        1.0
      ],
      "name": "Collada visual scene group"
    },
    {
      "children": [
        3
      ],
      "matrix": [
        100.0,
        0.0,
        0.0,
        0.0,
        0.0,
        -1.6e-05,
        -100.0,
        0.0,
        0.0,
        100.0,
        -1.6e-05,
        0.0,
        0.0,
        0.0,
        0.0,
        1.0
      ],
      "name": "horse_low"
    },
    {
      "mesh": 0,
      "name": "defaultMaterial"
    },
    {
      "children": [
        5
      ],
      "matrix": [
        70.299736,
        0.0,
        0.0,
        0.0,
        0.0,
        -1.1e-05,
        -70.299736,
        0.0,
        0.0,
        70.299736,
        -1.1e-05,
        0.0,
        -0.101202,
        0.0,
        -14.290566,
        1.0
      ],
      "name": "eye_low"
    },
    {
      "mesh": 1,
      "name": "defaultMaterial"
    }
  ],
  "samplers": [
    {
      "magFilter": 9729,
      "minFilter": 9987,
      "wrapS": 10497,
      "wrapT": 10497
    }
  ],
  "scene": 0,
  "scenes": [
    {
      "name": "Sketchfab_Scene",
      "nodes": [
        0
      ]
    }
  ],
  "textures": [
    {
      "sampler": 0,
      "source": 0
    },
    {
      "sampler": 0,
      "source": 1
    },
    {
      "sampler": 0,
      "source": 2
    }
  ]
}
